<?xml version="1.0" encoding="UTF-8"?>
<svg version="1.1" viewBox="0 0 1296 1600" width="1280" height="1280" xmlns="http://www.w3.org/2000/svg">
<path transform="translate(386,76)" d="m0 0c2.65 2.26 5.23 4.56 7.78 6.93 2 1.87 4.06 3.63 6.16 5.38 10.5 9.22 18.6 20.1 26.5 31.5 1.44 2.06 2.9 4.1 4.38 6.13 18.3 25.5 31.2 54.1 40.2 84.1 0.287 0.922 0.574 1.84 0.869 2.79 8.63 27.9 12.6 56.7 16.2 85.6 0.0851 0.681 0.17 1.36 0.258 2.06 1.37 11.4 1.87 22.7 1.84 34.2 4.37e-4 1.43 0.00131 2.87 0.00259 4.3 0.00222 3.9-0.00174 7.81-0.00678 11.7-0.00434 4.22-0.00286 8.45-0.0021 12.7 5.23e-4 7.31-0.0026 14.6-0.00824 21.9-0.00815 10.6-0.0107 21.1-0.012 31.7-0.00219 17.1-0.00883 34.3-0.0183 51.4-0.00919 16.6-0.0163 33.3-0.0205 49.9-3.94e-4 1.54-3.94e-4 1.54-7.96e-4 3.11-0.00131 5.15-0.00257 10.3-0.00381 15.5-0.0104 42.7-0.028 85.4-0.0503 128 1.08-0.0333 2.16-0.0666 3.28-0.101 10.3-0.306 20.5-0.53 30.8-0.676 5.27-0.0779 10.5-0.183 15.8-0.354 5.1-0.164 10.2-0.253 15.3-0.292 1.93-0.0275 3.87-0.0811 5.8-0.163 15.9-0.643 15.9-0.643 22.6 4.87 3.86 3.62 7.21 7.59 10.5 11.7 1.31 1.49 2.63 2.97 3.95 4.45 0.507 0.598 1.01 1.2 1.54 1.81 2.91 3.34 6.09 6.42 9.24 9.53 0.711 0.707 1.42 1.41 2.15 2.14 2.25 2.23 4.49 4.46 6.74 6.69 2.97 2.95 5.95 5.9 8.91 8.85 0.674 0.666 1.35 1.33 2.04 2.02 2.88 2.86 5.66 5.72 8.24 8.86 2.05 2.68 2.05 2.68 4.56 4.52 2.28 1.84 3.94 3.57 5.82 5.79 3.58 4.13 7.35 8 11.2 11.8 0.684 0.68 1.37 1.36 2.07 2.06 2.16 2.15 4.33 4.29 6.49 6.44 2.86 2.83 5.71 5.66 8.56 8.5 0.642 0.634 1.28 1.27 1.95 1.92 3.83 3.81 7.46 7.74 11 11.8 2.06 2.36 4.27 4.55 6.51 6.74 3.56 3.47 7.02 6.97 10.2 10.8 3.78 4.41 7.93 8.41 12.1 12.4 2.65 2.81 2.65 2.81 7.65 9.81h-235c0.0905 78.2 0.0905 78.2 0.209 156 0.0169 9.88 0.0337 19.8 0.0501 29.7 0.00223 1.34 0.00446 2.68 0.0067 4.02 0.0367 22 0.0629 44 0.0845 66 0.0218 21.9 0.0549 43.8 0.0984 65.7 0.0264 13.5 0.0442 27 0.0506 40.5 0.00527 9.27 0.0216 18.5 0.0463 27.8 0.0139 5.34 0.0232 10.7 0.0193 16-0.00345 4.91 0.00716 9.81 0.0282 14.7 0.00521 1.76 0.00557 3.52 1.6e-4 5.28-0.0259 9.41 0.456 18.6 1.76 27.9 0.178 1.27 0.178 1.27 0.36 2.57 4.65 30.4 24.1 63.6 48.8 82 40.5 28.7 97.3 33.1 145 25.4 35.2-6.31 69.4-20.8 99.4-40.1 0.683-0.439 1.37-0.879 2.07-1.33 13.2-8.52 25.9-17.7 38.3-27.4 1.74-1.36 3.49-2.71 5.24-4.06 6.28-4.86 12.4-9.83 18.2-15.2 1.94-1.78 3.9-3.5 5.89-5.21 11.9-10.4 23.1-21.5 34.3-32.7 0.638-0.635 1.28-1.27 1.93-1.93 6.57-6.55 13.1-13.1 19.1-20.2 0.949-1.1 1.9-2.19 2.85-3.28 23.8-27.5 43.9-56.2 61.6-88 1.28-2.29 2.58-4.56 3.9-6.83 23.6-41.7 34-88.7 38.6-136-1.46 0.144-1.46 0.144-2.95 0.291-29.1 2.83-57 3.26-86-1.29-0.839-0.127-1.68-0.254-2.54-0.385-20.3-3.18-40.8-9.58-58.7-19.6-1.8-1.01-3.62-1.97-5.44-2.94-7.83-4.23-14.6-9.15-21.3-15-1.31-1.15-1.31-1.15-2.66-2.32-2.48-2.2-4.92-4.42-7.34-6.68l-1.83-1.66c-26.9-25.5-39.4-62.6-46.5-98-0.243-1.2-0.485-2.4-0.736-3.64-3.45-18.3-4.31-36.6-4.27-55.2 0.00318-3.12-0.0205-6.25-0.0457-9.37-0.0575-17.8 1.58-35 6.67-52.1 0.308-1.06 0.616-2.11 0.933-3.2 2.44-8.2 5.14-16.2 8.75-23.9 0.58-1.25 0.58-1.25 1.17-2.53 5.62-12 11.7-23 19.8-33.5 0.98-1.35 1.96-2.71 2.94-4.06 28.1-36.8 68.5-56.2 114-62.4 15.3-2 30.6-3.38 46.1-3.56 1.54-0.0187 1.54-0.0187 3.1-0.0378 30.1-0.19 59.7 4.24 87.9 15 0.736 0.281 1.47 0.561 2.23 0.851 8.71 3.4 16.9 7.72 25.1 12.1 0.904 0.486 1.81 0.973 2.74 1.47 6.27 3.45 12.1 7.32 17.9 11.5 1.06 0.771 2.12 1.54 3.21 2.34 22.3 16.7 42.4 35.6 59.3 57.8 1.57 2.04 3.18 4.06 4.8 6.07 44.7 56 73.2 129 76.2 201 0.0631 1.48 0.0631 1.48 0.127 2.99 0.451 11.7 0.468 23.3 0.448 35-0.00537 3.74-1.33e-5 7.49 0.00635 11.2 0.00366 11.4-0.0924 22.8-0.574 34.2-0.0377 0.902-0.0754 1.8-0.114 2.73-2.38 49.7-15.8 102-35.4 148-0.715 1.7-1.43 3.4-2.14 5.09-2.24 5.32-4.54 10.6-6.86 15.9-0.4 0.911-0.8 1.82-1.21 2.76-17.6 39.9-40.5 76.8-65.8 112-0.687 0.964-1.37 1.93-2.08 2.92-8.89 12.3-18.2 24.4-27.9 36.1-1.5 1.85-3 3.71-4.5 5.56-3.62 4.43-7.39 8.68-11.2 12.9-2.36 2.66-4.59 5.39-6.82 8.16-3.31 4.09-6.78 7.83-10.6 11.5-3.92 3.89-7.48 8.11-10.9 12.4-6.57 8.08-13.8 15.5-21.1 22.8-0.521 0.522-1.04 1.04-1.58 1.58-5.36 5.36-10.7 10.6-16.5 15.6-2.58 2.22-5.05 4.54-7.54 6.86-4.57 4.21-9.25 8.23-14.1 12.1-2.35 1.9-4.68 3.81-7 5.75-13.5 11.3-27.4 22-42.1 31.8-0.824 0.551-1.65 1.1-2.5 1.67-25.5 17-52 31.9-79.5 45.3-0.576 0.3-1.15 0.599-1.75 0.908-72 37.2-160 50.5-305 37.7-14.4-4.65-28.3-10.2-42-16.6-1.18-0.554-1.18-0.554-2.38-1.12-20.2-9.62-39.2-21.2-57.6-33.9-1.07-0.732-1.07-0.732-2.17-1.48-10.7-7.33-20.9-15.2-30.8-23.5-0.626-0.527-1.25-1.05-1.9-1.6-7.36-6.23-14.5-12.6-21.6-19.2-0.97-0.897-0.97-0.897-1.96-1.81-3.88-3.64-7.42-7.45-10.9-11.5-2.38-2.71-4.95-5.2-7.54-7.7-4.64-4.57-8.87-9.32-12.9-14.4-2.27-2.85-4.64-5.61-7.01-8.38-9.42-11.3-17.9-23.6-25.2-36.4-0.681-1.19-0.681-1.19-1.38-2.41-1.57-2.79-3.1-5.59-4.62-8.4-0.712-1.27-0.712-1.27-1.44-2.56-1.33-2.5-2.51-5.03-3.66-7.62-0.609-1.35-1.24-2.7-1.89-4.03-10.1-21.2-8.14-44.6-8.03-67.5 0.0224-6.18-0.00177-12.4-0.02-18.5-0.0253-10.7-0.022-21.4 0.00206-32 0.0251-11.2 0.0334-22.4 0.0198-33.6-8.36e-4 -0.698-0.00167-1.4-0.00253-2.12-0.00433-3.55-0.00896-7.1-0.0137-10.6-0.033-25.1-0.0291-50.1-0.00332-75.2 0.025-24.3 0.0331-48.7 0.0186-73-6.63e-4 -1.13-6.63e-4 -1.13-0.00134-2.28-0.00446-7.55-0.00925-15.1-0.0143-22.6-0.0103-15.4-0.0183-30.7-0.0249-46.1-3.07e-4 -0.706-6.14e-4 -1.41-9.31e-4 -2.14-0.0202-47.1 0.0127-94.2 0.0537-141-0.77 0.00959-1.54 0.0192-2.33 0.0291-18.8 0.229-37.6 0.368-56.3 0.409-9.08 0.022-18.2 0.0736-27.2 0.196-7.92 0.107-15.8 0.157-23.8 0.14-4.19-0.00696-8.38 0.0134-12.6 0.102-27.5 0.554-27.5 0.554-35-5.31-3.3-3.19-5.89-6.67-8.35-10.5-2.38-3.43-5.39-6.19-8.41-9.04-3.27-3.18-6.4-6.42-9.38-9.88-3.68-4.25-7.61-8.19-11.6-12.1-4.62-4.53-9.03-9.13-13.3-14-2.93-3.31-6.09-6.38-9.25-9.47-3.78-3.71-7.48-7.42-10.9-11.4-3.8-4.41-7.91-8.48-12.1-12.6-4.78-4.69-9.37-9.44-13.7-14.5-3.09-3.49-6.43-6.72-9.76-9.98-4.68-4.59-9.16-9.25-13.4-14.2-1.92-2.2-3.96-4.25-6.06-6.28-8.31-8.23-8.31-8.23-11.5-12.5v-2h296c-0.0906-55.2-0.0906-55.2-0.209-110-0.018-7.45-0.0359-14.9-0.0535-22.4-0.00331-1.4-0.00331-1.4-0.00669-2.83-0.0353-15-0.0602-30.1-0.0812-45.1-0.0218-15.5-0.0549-30.9-0.0984-46.4-0.0264-9.53-0.0442-19.1-0.0506-28.6-0.00528-6.55-0.0216-13.1-0.0463-19.6-0.0139-3.77-0.0232-7.54-0.0193-11.3 0.0269-33.1-3.22-64.5-27.4-89.4-1.95-1.76-3.95-3.38-6.04-4.98-0.798-0.633-1.6-1.27-2.42-1.92-14.2-10.8-29.7-16.9-46.6-22.1-0.896-0.275-1.79-0.551-2.72-0.834-26.4-7.8-60.6-7.84-85.4 5.49-2.35 1.39-4.65 2.82-6.92 4.34-3.97-6.19-7.57-12.5-11.1-19-0.844-1.56-0.844-1.56-1.71-3.16-13.2-24.6-24.6-49.7-34.9-75.7-0.873-2.12-1.79-4.22-2.74-6.31-3.04-6.72-4.31-12.1-4.01-19.4 0.0337-1.37 0.0337-1.37 0.0681-2.77 0.525-16.3 5.41-29.4 16.4-41.7 0.519-0.589 1.04-1.18 1.57-1.79 5.18-5.5 11.3-9.9 17.4-14.2 0.552-0.391 1.1-0.781 1.67-1.18 69.5-48.4 180-63.3 249-7.82z" fill="#000100"/>
</svg>
